<svg width="912" height="1164" viewBox="0 0 912 1164" fill="none" xmlns="http://www.w3.org/2000/svg">
<path d="M190.223 1067.8L268.102 936.743L339.502 1036.87L190.223 1067.8Z" fill="#74F1FF"/>
<path d="M139.616 976.77L263.47 887.881L288.786 1008.22L139.616 976.77Z" fill="#74F1FF"/>
<path d="M59.9619 888.393L199.327 760.416L244.295 931.08L59.9619 888.393Z" fill="#74F1FF"/>
<path d="M1.00679 704.096L167.5 614.202L169.244 790.683L1.00679 704.096Z" fill="#74F1FF"/>
<path d="M26.2109 579.752L192.881 507.746L194.271 648.45L26.2109 579.752Z" fill="#74F1FF"/>
<path d="M251.538 69.4928L420.132 317.128L235.603 368.647L251.538 69.4928Z" fill="#74F1FF"/>
<path d="M494.218 19.9994L537.11 316.491L348.682 281.851L494.218 19.9994Z" fill="#74F1FF"/>
<path d="M83.3068 328.673L297.38 360.034L168.677 527.476L83.3068 328.673Z" fill="#74F1FF"/>
<path d="M868.671 641.611L721.408 681.04L740.216 559.512L868.671 641.611Z" fill="#74F1FF"/>
<path d="M830.337 887.155L677.917 890.177L725.277 776.686L830.337 887.155Z" fill="#74F1FF"/>
<path d="M813.997 927.155L661.577 930.177L708.937 816.686L813.997 927.155Z" fill="#74F1FF"/>
<path d="M858.847 814.883L669.902 804.858L760.368 653.319L858.847 814.883Z" fill="#74F1FF"/>
<path d="M863.285 532.824L685.841 571.26L711.671 432.94L863.285 532.824Z" fill="#74F1FF"/>
<path d="M776.592 135.541L621.417 391.798L497.872 245.368L776.592 135.541Z" fill="#74F1FF"/>
<path d="M837.128 367.572L661.964 494.571L637.213 284.836L837.128 367.572Z" fill="#74F1FF"/>
<ellipse cx="452" cy="656.5" rx="307" ry="410.5" fill="#74F1FF"/>
<path d="M711.978 759.5C711.978 982.623 687.978 1163.5 460.478 1163.5C232.978 1163.5 208.978 982.623 208.978 759.5C208.978 536.377 214.978 367.5 460.478 355.5C711.978 387 711.978 536.377 711.978 759.5Z" fill="#D9D9D9"/>
<path d="M300 592.546L313 591.5L326 591.5L339 591.5L351.5 592.546L365 593.454L377 595.045L389 598.001L401.015 601.752" stroke="#64DEDE" stroke-width="40" stroke-linecap="round"/>
<path d="M404.5 602.562L415 602.562L427.5 602.562L441 600.062L459 596.062L476 588.062L490 576.5L500 566L508 556L514.938 546.837" stroke="#64DEDE" stroke-width="40" stroke-linecap="round"/>
<path d="M516 547.499L521 542.5L530.5 538.999L540.5 535.999L551 534.499L569 532.999L585 532.999L598 532.999L612 534.499L622.5 535.999L629 538.999" stroke="#64DEDE" stroke-width="40" stroke-linecap="round"/>
<path d="M674 684.468C674 724.509 633.706 756.968 584 756.968C534.294 756.968 494 724.509 494 684.468C494 644.427 553.294 659.968 603 659.968C652.706 659.968 674 644.427 674 684.468Z" fill="white"/>
<path d="M441.243 690.425C443.455 730.405 405.016 765.041 355.386 767.788C305.757 770.534 263.73 740.351 261.518 700.371C259.305 660.392 319.368 672.633 368.998 669.886C418.627 667.14 439.03 650.446 441.243 690.425Z" fill="white"/>
<circle cx="600.5" cy="675.5" r="14.5" fill="black"/>
<circle cx="350.5" cy="688.5" r="14.5" fill="#0B0B0B"/>
<circle cx="350.5" cy="688.5" r="14.5" fill="black"/>
<path d="M632 981C632 1034 563.5 1034 479 1034C394.5 1034 326 1029 326 981C326 933 394.5 928 479 928C563.5 928 632 928 632 981Z" fill="#FFA6A6"/>
</svg>
